{
 "asset": {
  "version": "2.0"
 },
 "scene": 0,
 "scenes": [
  {
   "nodes": [
    0,
    1
   ]
  }
 ],
 "nodes": [
  {
   "mesh": 0
  },
  {
   "mesh": 1
  }
 ],
 "meshes": [
  {
   "primitives": [
    {
     "attributes": {
      "POSITION": 0,
      "NORMAL": 1,
      "TEXCOORD_0": 2
     },
     "indices": 3,
     "material": 0
    }
   ]
  },
  {
   "primitives": [
    {
     "attributes": {
      "POSITION": 4,
      "NORMAL": 5,
      "TEXCOORD_0": 6
     },
     "indices": 7,
     "material": 1
    }
   ]
  }
 ],
 "materials": [
  {
   "pbrMetallicRoughness": {
    "baseColorFactor": [
     0.2,
     0.4,
     0.8,
     1
    ],
    "roughnessFactor": 0.5,
    "metallicFactor": 0
   },
   "doubleSided": true
  },
  {
   "pbrMetallicRoughness": {
    "baseColorFactor": [
     0.1,
     0.1,
     0.1,
     1
    ],
    "roughnessFactor": 0.8,
    "metallicFactor": 0
   },
   "emissiveFactor": [
    1.0,
    0.8,
    0.4
   ],
   "doubleSided": true
  }
 ],
 "buffers": [
  {
   "uri": "data:application/octet-stream;base64,",
   "byteLength": 280
  }
 ],
 "bufferViews": [
  {
   "buffer": 0,
   "byteOffset": 0,
   "byteLength": 48,
   "target": 34962
  },
  {
   "buffer": 0,
   "byteOffset": 48,
   "byteLength": 48,
   "target": 34962
  },
  {
   "buffer": 0,
   "byteOffset": 96,
   "byteLength": 32,
   "target": 34962
  },
  {
   "buffer": 0,
   "byteOffset": 128,
   "byteLength": 12,
   "target": 34963
  },
  {
   "buffer": 0,
   "byteOffset": 140,
   "byteLength": 48,
   "target": 34962
  },
  {
   "buffer": 0,
   "byteOffset": 188,
   "byteLength": 48,
   "target": 34962
  },
  {
   "buffer": 0,
   "byteOffset": 236,
   "byteLength": 32,
   "target": 34962
  },
  {
   "buffer": 0,
   "byteOffset": 268,
   "byteLength": 12,
   "target": 34963
  }
 ],
 "accessors": [
  {
   "bufferView": 0,
   "componentType": 5126,
   "count": 4,
   "type": "VEC3",
   "min": [
    0,
    0,
    0.0
   ],
   "max": [
    1,
    1,
    0.0
   ]
  },
  {
   "bufferView": 1,
   "componentType": 5126,
   "count": 4,
   "type": "VEC3",
   "min": [
    0,
    0,
    1
   ],
   "max": [
    0,
    0,
    1
   ]
  },
  {
   "bufferView": 2,
   "componentType": 5126,
   "count": 4,
   "type": "VEC2"
  },
  {
   "bufferView": 3,
   "componentType": 5123,
   "count": 6,
   "type": "SCALAR"
  },
  {
   "bufferView": 4,
   "componentType": 5126,
   "count": 4,
   "type": "VEC3",
   "min": [
    0.3,
    0.3,
    0.5
   ],
   "max": [
    0.7,
    0.7,
    0.5
   ]
  },
  {
   "bufferView": 5,
   "componentType": 5126,
   "count": 4,
   "type": "VEC3",
   "min": [
    0,
    0,
    1
   ],
   "max": [
    0,
    0,
    1
   ]
  },
  {
   "bufferView": 6,
   "componentType": 5126,
   "count": 4,
   "type": "VEC2"
  },
  {
   "bufferView": 7,
   "componentType": 5123,
   "count": 6,
   "type": "SCALAR"
  }
 ]
}